<svg id="Слой_1" data-name="Слой 1" xmlns="http://www.w3.org/2000/svg" viewBox="0 0 264.89 20.17"><title>Sveta Zheleykina</title><path d="M.28,13.24H2.92a5.08,5.08,0,0,0,.87,2.38,4.83,4.83,0,0,0,2.13,1.51,8.83,8.83,0,0,0,3.25.56A8.42,8.42,0,0,0,12,17.27a3.88,3.88,0,0,0,1.82-1.19,2.58,2.58,0,0,0,.61-1.66,2.3,2.3,0,0,0-.58-1.58A4.26,4.26,0,0,0,12,11.69c-.57-.2-1.83-.52-3.77-.94A20.56,20.56,0,0,1,4.09,9.54a5.7,5.7,0,0,1-2.27-1.8,4.18,4.18,0,0,1-.73-2.41A4.55,4.55,0,0,1,2,2.6,5.55,5.55,0,0,1,4.65.66,11,11,0,0,1,8.54,0a11.22,11.22,0,0,1,4.14.7,5.8,5.8,0,0,1,2.77,2,5.46,5.46,0,0,1,1,3V6H13.81a3.89,3.89,0,0,0-1.47-2.77,6.12,6.12,0,0,0-3.69-.93,6.37,6.37,0,0,0-3.71.85A2.49,2.49,0,0,0,3.79,5.16a2.11,2.11,0,0,0,.82,1.71A11.86,11.86,0,0,0,8.83,8.26a28.11,28.11,0,0,1,4.69,1.23,6.27,6.27,0,0,1,2.73,2,4.49,4.49,0,0,1,.88,2.75,4.91,4.91,0,0,1-1,2.91,6.27,6.27,0,0,1-2.78,2.13A10.59,10.59,0,0,1,9.3,20a13.27,13.27,0,0,1-4.82-.77,6.7,6.7,0,0,1-3.05-2.29A6.18,6.18,0,0,1,.28,13.47Z"/><path d="M25.53,19.67,17.33.33h3l5.5,14.05c.44,1.13.81,2.18,1.11,3.17.33-1.06.71-2.11,1.14-3.17l5.72-14h2.86L28.4,19.67Z"/><path d="M37.78,19.67V.33H53.09V2.61H40.58V8.54H52.29V10.8H40.58v6.59h13v2.28Z"/><path d="M61.36,19.67V2.61h-7V.33H71.16V2.61h-7V19.67Z"/><path d="M67.05,19.67,75.18.33h3l8.66,19.34H83.67L81.2,13.81H72.35L70,19.67Zm6.11-7.94h7.18L78.13,6.37c-.68-1.63-1.18-3-1.51-4a23.47,23.47,0,0,1-1.14,3.7Z"/><path d="M95,19.67V17.3L105.84,4.91a31.09,31.09,0,0,1,2.2-2.3H96.22V.33h15.16V2.61L99.5,16l-1.28,1.36h13.51v2.28Z"/><path d="M113.37,19.67V.33h2.8V8.27h11V.33H130V19.67h-2.8V10.55h-11v9.12Z"/><path d="M133.24,19.67V.33h15.3V2.61H136V8.54h11.71V10.8H136v6.59h13v2.28Z"/><path d="M151.31,19.67V.33h2.8V17.39h10.43v2.28Z"/><path d="M166.46,19.67V.33h15.31V2.61h-12.5V8.54H181V10.8H169.27v6.59h13v2.28Z"/><path d="M190.62,19.67V11.48L182.46.33h3.41L190,6.16c.77,1.09,1.49,2.18,2.15,3.27.64-1,1.41-2.15,2.31-3.41L198.6.33h3.27l-8.45,11.15v8.19Z"/><path d="M202.78,19.67V.33h2.81V9.92L216.1.33h3.8L211,8.17l9.27,11.5h-3.7l-7.54-9.79L205.59,13v6.7Z"/><path d="M221.62,19.67V.33h2.8V19.67Z"/><path d="M226.87,19.67V.33h2.87l11.12,15.18V.33h2.69V19.67h-2.88L229.56,4.47v15.2Z"/><path d="M244.47,19.67,252.6.33h3l8.67,19.34h-3.19l-2.47-5.86h-8.85l-2.33,5.86Zm6.1-7.94h7.18l-2.21-5.36c-.67-1.63-1.17-3-1.5-4a23.47,23.47,0,0,1-1.14,3.7Z"/></svg>